<?xml version="1.0" encoding="UTF-8"?>
<svg width="192px" height="55px" viewBox="0 0 192 55" version="1.1" xmlns="http://www.w3.org/2000/svg" xmlns:xlink="http://www.w3.org/1999/xlink">
    <!-- Generator: Sketch 54.1 (76490) - https://sketchapp.com -->
    <title>Logos</title>
    <desc>Created with Sketch.</desc>
    <defs>
        <polygon id="path-1" points="0 0.24306383 34.5422298 0.24306383 34.5422298 34.7870809 0 34.7870809"></polygon>
        <polygon id="path-3" points="0.119642553 0.960221277 21.1998298 0.960221277 21.1998298 22.154434 0.119642553 22.154434"></polygon>
        <polygon id="path-5" points="0.357446809 0.17492766 5.80493617 0.17492766 5.80493617 8.53191489 0.357446809 8.53191489"></polygon>
    </defs>
    <g id="Styleguide" stroke="none" stroke-width="1" fill="none" fill-rule="evenodd">
        <g id="StyleGuide" transform="translate(-40.000000, -41.000000)">
            <g id="Group">
                <g id="Logos" transform="translate(40.000000, 40.000000)">
                    <g id="Group-3" transform="translate(0.000000, 0.949021)">
                        <mask id="mask-2" fill="white">
                            <use xlink:href="#path-1"></use>
                        </mask>
                        <g id="Clip-2"></g>
                        <path d="M24.8744851,14.6139745 C22.0661447,19.6337191 16.3922723,22.6827404 10.3454638,21.8665702 C9.92010213,21.8093787 9.52095319,21.727166 9.10274043,21.6342298 L10.6266553,15.6934638 C10.7350809,15.7089532 10.8268255,15.7232511 10.9316766,15.7387404 C16.8116766,16.5334638 22.2627404,13.8764426 24.9590809,9.40835745 L24.8744851,14.6139745 Z M25.0889532,2.12716596 L25.0162723,6.37959149 C21.9624851,10.2984 16.9832511,12.5217191 11.7073362,11.808017 C11.6763574,11.805634 11.6608681,11.7972936 11.6275064,11.7937191 L13.0132085,6.39627234 C17.6588255,6.78708085 21.9458043,5.02844255 24.7481872,1.96393191 C22.483166,0.87252766 19.953634,0.242229787 17.2715915,0.242229787 C7.73252766,0.242229787 -0.000238297872,7.97499574 -0.000238297872,17.5128681 C-0.000238297872,23.0461447 2.61269787,27.9610383 6.66018723,31.1220596 L8.12333617,25.4184 C8.7584,25.591166 9.39108085,25.7222298 10.0595064,25.8104 C16.488783,26.6742298 22.4438468,23.4012085 24.7994213,18.1669957 L24.7172085,23.1414638 C22.2841872,29.0691234 16.1170383,32.8366128 9.47448511,31.9358468 C8.60708085,31.8214638 7.78971915,31.629634 6.99142128,31.3698894 C9.86529362,33.5062298 13.4147404,34.7870809 17.2715915,34.7870809 C26.8094638,34.7870809 34.5422298,27.0519319 34.5422298,17.5128681 C34.5422298,10.7916766 30.6937191,4.98078298 25.0889532,2.12716596 L25.0889532,2.12716596 Z" id="Fill-1" fill="#0B3C61" mask="url(#mask-2)"></path>
                    </g>
                    <polygon id="Fill-4" fill="#0B3C61" points="53.4946553 19.2997447 60.9235915 19.2997447 60.9235915 16.9775319 53.4946553 16.9775319 53.4946553 10.7484255 61.095166 10.7484255 61.095166 8.42621277 50.2704851 8.42621277 50.2704851 28.611234 61.204783 28.611234 61.204783 26.2854468 53.4946553 26.2854468"></polygon>
                    <polygon id="Fill-6" fill="#0B3C61" points="88.1624681 8.42561702 80.9241702 21.5987234 73.9003404 8.42561702 71.7771064 8.42561702 70.2662979 28.6118298 72.599234 28.6118298 73.2569362 14.0065532 79.7171915 26.2288511 81.0242553 26.2288511 87.6715745 13.7396596 88.2220426 28.6118298 91.6833191 28.6118298 90.2582979 8.42561702"></polygon>
                    <polygon id="Fill-8" fill="#0B3C61" points="105.703813 19.2997447 113.13394 19.2997447 113.13394 16.9775319 105.703813 16.9775319 105.703813 10.7484255 113.303132 10.7484255 113.303132 8.42621277 102.483217 8.42621277 102.483217 28.611234 113.412749 28.611234 113.412749 26.2854468 105.703813 26.2854468"></polygon>
                    <path d="M130.474877,18.6882723 C133.527472,17.772017 135.255132,15.8561021 135.255132,13.3313362 C135.255132,9.01933617 131.901089,8.42597447 128.27777,8.42597447 L123.062621,8.42597447 L123.062621,28.6109957 L126.286791,28.6109957 L126.286791,10.4693787 L127.66177,10.4693787 C130.548749,10.4693787 131.839132,11.4559319 131.839132,13.6673362 C131.839132,15.5534638 130.401004,17.4562723 127.193515,17.4562723 L126.828919,17.4562723 L126.828919,19.4412936 L127.193515,19.4412936 C128.588749,19.4412936 129.183302,20.3658894 130.287813,22.2865702 L133.86943,28.6109957 L137.655983,28.6109957 L134.363898,22.9585702 C133.115217,20.8484426 131.940409,19.5473362 130.474877,18.6882723" id="Fill-10" fill="#0B3C61"></path>
                    <path d="M155.926638,20.3231149 L158.308426,21.4121362 L158.308426,26.3103489 C157.390979,26.7178383 156.023149,26.9311149 154.32766,26.9311149 C149.408,26.9311149 146.47217,23.8797106 146.47217,18.7694128 C146.47217,13.6031149 149.667745,9.99528511 154.240681,9.99528511 C156.514043,9.99528511 158.350128,10.6112851 160.017021,11.9326468 L160.467404,12.2900936 L161.107234,9.51630638 L160.852255,9.38881702 C158.831489,8.37843404 156.665362,7.86728511 154.408681,7.86728511 C147.599319,7.86728511 143.025191,12.2269447 143.025191,18.7169872 C143.025191,25.8623489 148.715745,29.0614979 154.355064,29.0614979 L154.357447,29.0614979 L154.35983,29.0614979 C156.473532,29.0340936 158.777872,28.5503489 161.403915,27.5804766 L161.642213,27.4923064 L161.642213,18.8003915 L155.926638,18.8003915 L155.926638,20.3231149 Z" id="Fill-12" fill="#0B3C61"></path>
                    <g id="Group-16" transform="translate(170.191489, 6.906468)">
                        <mask id="mask-4" fill="white">
                            <use xlink:href="#path-3"></use>
                        </mask>
                        <g id="Clip-15"></g>
                        <path d="M10.7727489,3.08822128 C15.3194723,3.08822128 17.7000681,7.2072 17.7000681,11.2773277 C17.7000681,15.490434 15.4541106,20.0252426 10.5189617,20.0252426 C5.78040851,20.0252426 3.62142979,15.9253277 3.62142979,12.1173277 C3.62142979,6.46371064 6.29394043,3.08822128 10.7727489,3.08822128 M10.7989617,0.960221277 C3.7882383,0.960221277 0.119642553,6.30524255 0.119642553,11.5847319 C0.119642553,17.9067745 4.25172766,22.154434 10.4045787,22.154434 C16.6598979,22.154434 21.2006638,17.6720511 21.2006638,11.4977532 C21.2006638,6.25281702 17.984834,0.960221277 10.7989617,0.960221277" id="Fill-14" fill="#0B3C61" mask="url(#mask-4)"></path>
                    </g>
                    <path d="M163.470077,50.3279149 C163.470077,51.0404255 163.566587,51.5563404 163.7608,51.8732766 C164.080119,52.390383 164.507864,52.6513191 165.0488,52.6513191 C165.489651,52.6513191 165.870928,52.4606809 166.191438,52.0770213 C166.51314,51.6933617 166.6728,51.1250213 166.6728,50.367234 C166.6728,49.5915745 166.519098,49.0172766 166.211694,48.6491064 C165.903098,48.2785532 165.530162,48.0938723 165.094077,48.0938723 C164.653226,48.0938723 164.274332,48.2857021 163.951438,48.6669787 C163.632119,49.0506383 163.470077,49.6034894 163.470077,50.3279149 L163.470077,50.3279149 Z M163.483183,53.3459574 L162.547864,53.3459574 L162.547864,45.1389787 L163.553481,45.1389787 L163.553481,48.0664681 C163.981226,47.5314894 164.523353,47.2657872 165.183438,47.2657872 C165.549226,47.2657872 165.894757,47.3396596 166.222417,47.4874043 C166.547694,47.6339574 166.818162,47.8412766 167.027864,48.1081702 C167.238757,48.3738723 167.405566,48.696766 167.523523,49.0744681 C167.642672,49.4509787 167.703438,49.8537021 167.703438,50.2838298 C167.703438,51.3013617 167.450843,52.0889362 166.946843,52.6441702 C166.442843,53.2017872 165.837566,53.4794043 165.133396,53.4794043 C164.4328,53.4794043 163.882332,53.1851064 163.483183,52.6012766 L163.483183,53.3459574 Z" id="Fill-17" fill="#0B3C61"></path>
                    <g id="Group-21" transform="translate(168.000000, 47.225617)">
                        <mask id="mask-6" fill="white">
                            <use xlink:href="#path-5"></use>
                        </mask>
                        <g id="Clip-20"></g>
                        <path d="M0.884085106,8.40931064 L0.772085106,7.46326809 C0.992510638,7.52284255 1.18434043,7.55262979 1.34876596,7.55262979 C1.57276596,7.55262979 1.75148936,7.51569362 1.88612766,7.44062979 C2.02076596,7.36675745 2.13038298,7.26190638 2.21617021,7.12726809 C2.27931915,7.02599149 2.38297872,6.77697021 2.52476596,6.37662979 C2.5426383,6.32182128 2.57242553,6.23960851 2.61412766,6.13118298 L0.357446809,0.17492766 L1.44408511,0.17492766 L2.68085106,3.61714043 C2.84170213,4.05441702 2.98587234,4.51194894 3.11217021,4.99450213 C3.22774468,4.53220426 3.36595745,4.08062979 3.52680851,3.63977872 L4.79693617,0.17492766 L5.80493617,0.17492766 L3.54229787,6.22054468 C3.29923404,6.87348085 3.11217021,7.32386383 2.97753191,7.56931064 C2.79761702,7.90173617 2.59387234,8.1448 2.36153191,8.29969362 C2.13038298,8.45458723 1.85276596,8.53203404 1.53344681,8.53203404 C1.33923404,8.53203404 1.12238298,8.4915234 0.884085106,8.40931064" id="Fill-19" fill="#0B3C61" mask="url(#mask-6)"></path>
                    </g>
                    <path d="M183.361157,45.138383 L184.445413,45.138383 L184.445413,49.8793191 C184.445413,50.7050213 184.352477,51.3603404 184.167796,51.8452766 C183.980732,52.3302128 183.642349,52.7245957 183.156221,53.029617 C182.670094,53.3334468 182.030264,53.484766 181.239115,53.484766 C180.469413,53.484766 179.841498,53.3525106 179.352987,53.088 C178.864477,52.8234894 178.51537,52.4398298 178.305668,51.9370213 C178.097157,51.4354043 177.991115,50.7502979 177.991115,49.8793191 L177.991115,45.138383 L179.077753,45.138383 L179.077753,49.8745532 C179.077753,50.5870638 179.144477,51.1125106 179.276732,51.4508936 C179.410179,51.7880851 179.637753,52.0490213 179.960647,52.2313191 C180.28354,52.413617 180.677923,52.5053617 181.144987,52.5053617 C181.943285,52.5053617 182.510434,52.3242553 182.8512,51.963234 C183.189583,51.6010213 183.361157,50.904 183.361157,49.8745532 L183.361157,45.138383 Z" id="Fill-22" fill="#0B3C61"></path>
                    <polygon id="Fill-24" fill="#0B3C61" points="186.210723 53.3450043 186.210723 45.1380255 187.294979 45.1380255 187.294979 52.3775149 191.338894 52.3775149 191.338894 53.3450043"></polygon>
                </g>
            </g>
        </g>
    </g>
</svg>